<?xml version="1.0" standalone="no"?>
<!DOCTYPE svg PUBLIC "-//W3C//DTD SVG 20010904//EN"
 "http://www.w3.org/TR/2001/REC-SVG-20010904/DTD/svg10.dtd">
<svg version="1.0" xmlns="http://www.w3.org/2000/svg"
 width="140.000000pt" height="140.000000pt" viewBox="0 0 140.000000 140.000000"
 preserveAspectRatio="xMidYMid meet">

<g transform="translate(0.000000,140.000000) scale(0.100000,-0.100000)"
fill="#000000" stroke="none">
<path d="M590 1090 c-95 -32 -150 -115 -150 -226 0 -83 -10 -122 -32 -128 -17
-4 -19 -10 -13 -33 4 -15 9 -47 12 -70 3 -24 9 -43 14 -43 5 0 8 3 8 8 -5 29
5 19 22 -23 36 -93 41 -85 -53 -80 -77 4 -85 6 -110 35 -39 42 -88 36 -88 -11
0 -10 -9 -20 -20 -24 -49 -16 -80 -134 -46 -180 11 -16 17 -17 29 -7 8 7 18
24 21 37 7 29 36 34 36 7 0 -11 9 -27 20 -37 20 -18 23 -18 103 8 45 15 88 27
95 27 15 0 15 -29 1 -145 -7 -59 -8 -90 -1 -93 6 -2 -1 -14 -14 -27 -30 -30
-31 -51 -2 -66 26 -14 119 -5 157 15 14 8 40 20 58 26 18 7 35 21 38 31 9 26
55 26 55 0 0 -12 12 -23 33 -31 17 -6 44 -18 58 -26 37 -19 129 -28 162 -15
23 9 27 15 22 34 -4 12 -16 29 -28 38 -14 12 -16 18 -7 21 11 3 11 21 2 94
-17 126 -16 134 9 134 12 0 53 -8 91 -17 l71 -17 23 28 c13 15 24 38 24 52 0
30 7 30 36 3 30 -28 59 -19 50 16 -17 66 -76 125 -126 125 -10 0 -23 7 -30 15
-22 26 -60 19 -71 -14 -6 -16 -15 -28 -22 -28 -7 1 -31 -5 -55 -12 -23 -8 -45
-11 -49 -8 -10 10 47 148 59 141 5 -3 7 -13 4 -21 -3 -8 -1 -11 4 -8 6 3 10
23 10 43 0 20 4 43 9 51 13 20 1 51 -19 51 -14 0 -18 13 -23 89 -7 118 -24
168 -69 213 -66 66 -197 87 -308 48z m245 -20 c17 -9 30 -20 30 -27 0 -6 4
-15 9 -20 5 -5 6 -2 1 6 -5 9 -3 12 6 9 8 -2 25 -24 38 -48 32 -57 44 -226 17
-236 -9 -4 -24 0 -34 9 -9 9 -46 18 -82 22 -60 6 -64 5 -46 -9 11 -9 34 -16
50 -17 17 -1 42 -4 54 -8 37 -10 -151 -16 -290 -10 -74 4 -80 17 -8 18 40 1
65 14 57 28 -8 13 -119 -8 -140 -26 -9 -7 -24 -10 -33 -7 -15 6 -16 18 -11 95
3 48 12 104 20 123 17 40 70 86 119 105 45 17 204 12 243 -7z m-365 -354 c0
-3 -4 -8 -10 -11 -5 -3 -10 -1 -10 4 0 6 5 11 10 11 6 0 10 -2 10 -4z m77 -16
c1 -14 -4 -20 -19 -20 -12 0 -18 3 -15 7 4 3 2 12 -4 20 -9 10 -6 13 13 13 17
0 24 -6 25 -20z m106 13 c12 -11 -14 -33 -39 -33 -26 0 -27 1 -18 24 6 16 45
22 57 9z m121 -5 c-6 -10 -5 -10 7 -1 12 10 17 8 27 -8 11 -17 9 -19 -11 -19
-23 0 -47 16 -47 32 0 4 7 8 16 8 9 0 12 -5 8 -12z m122 1 c-15 -9 -16 -13 -5
-20 10 -6 6 -9 -13 -9 -30 0 -31 1 -22 24 4 9 17 16 33 16 23 -1 24 -2 7 -11z
m28 -155 c-15 -43 -31 -71 -37 -67 -6 4 -7 1 -3 -6 11 -17 -35 -83 -80 -117
-51 -39 -133 -44 -189 -12 -73 42 -145 176 -162 301 -6 41 1 45 37 20 13 -9
44 -17 71 -17 26 -1 45 -4 42 -8 -7 -12 20 -9 38 5 9 7 21 22 28 35 17 31 41
27 80 -13 28 -30 61 -49 48 -27 -3 4 19 7 48 8 49 0 87 19 91 46 4 26 8 17 11
-26 3 -35 -3 -69 -23 -122z m-497 134 c-3 -8 -6 -5 -6 6 -1 11 2 17 5 13 3 -3
4 -12 1 -19z m555 -10 c-7 -7 -12 -8 -12 -2 0 14 12 26 19 19 2 -3 -1 -11 -7
-17z m-730 -156 c-2 -19 -9 -28 -23 -28 -21 0 -25 26 -7 44 21 21 35 14 30
-16z m866 -27 l3 -40 -23 30 c-12 17 -26 32 -30 33 -20 9 -5 23 20 20 24 -3
27 -8 30 -43z m-772 -40 c1 0 5 -10 8 -22 6 -18 2 -22 -23 -28 -17 -3 -39 -1
-51 5 -26 14 -42 3 -17 -11 22 -13 13 -29 -17 -29 -19 0 -23 6 -24 30 -1 25 3
30 23 30 31 0 55 10 55 22 0 6 -7 8 -15 4 -13 -5 -14 -2 -4 16 9 17 9 23 0 26
-6 2 -11 9 -11 15 0 6 17 -5 37 -24 21 -18 38 -34 39 -34z m844 39 c12 -29 6
-44 -17 -44 -11 0 -14 6 -8 27 5 23 4 25 -9 14 -13 -11 -16 -11 -16 1 0 36 37
38 50 2z m-125 6 c3 -5 1 -10 -4 -10 -6 0 -11 5 -11 10 0 6 2 10 4 10 3 0 8
-4 11 -10z m175 -52 c0 -20 -18 -5 -23 19 -5 26 -4 26 9 8 8 -10 14 -22 14
-27z m-1035 22 c3 -6 -1 -7 -9 -4 -9 3 -16 2 -16 -4 0 -6 5 -12 12 -14 14 -5
4 -38 -11 -38 -13 0 -25 45 -16 59 8 14 32 14 40 1z m45 6 c0 -11 -19 -15 -25
-6 -3 5 1 10 9 10 9 0 16 -2 16 -4z m844 -31 l28 -24 -24 -22 c-29 -26 -68
-32 -68 -12 0 7 -7 16 -17 20 -14 5 -13 8 5 14 13 5 22 17 22 29 0 27 19 25
54 -5z m65 -21 c14 -32 7 -44 -26 -44 -21 0 -23 2 -13 15 7 8 10 21 7 29 -6
14 0 26 13 26 4 0 12 -12 19 -26z m-989 -53 c0 -11 -3 -11 -15 -1 -8 7 -15 24
-15 39 l1 26 14 -25 c8 -14 14 -31 15 -39z m1090 39 c0 -11 -4 -20 -9 -20 -5
0 -7 9 -4 20 3 11 7 20 9 20 2 0 4 -9 4 -20z m-1055 -20 c3 -5 1 -10 -4 -10
-6 0 -11 5 -11 10 0 6 2 10 4 10 3 0 8 -4 11 -10z m802 -12 c-3 -8 -6 -5 -6 6
-1 11 2 17 5 13 3 -3 4 -12 1 -19z m-860 -50 c-3 -8 -6 -5 -6 6 -1 11 2 17 5
13 3 -3 4 -12 1 -19z"/>
<path d="M590 900 c0 -6 39 -10 96 -10 61 0 93 4 89 10 -3 6 -46 10 -96 10
-53 0 -89 -4 -89 -10z"/>
<path d="M590 840 c0 -6 38 -10 95 -10 57 0 95 4 95 10 0 6 -38 10 -95 10 -57
0 -95 -4 -95 -10z"/>
<path d="M662 625 c-14 -31 -15 -45 -3 -45 8 0 22 61 16 68 -1 1 -7 -9 -13
-23z"/>
<path d="M731 630 c0 -8 4 -24 9 -35 5 -13 9 -14 9 -5 0 8 -4 24 -9 35 -5 13
-9 14 -9 5z"/>
<path d="M628 565 c-10 -10 2 -35 17 -35 8 0 17 -5 21 -11 4 -8 -8 -10 -41 -8
-40 3 -48 1 -51 -14 -1 -11 0 -16 4 -13 7 7 62 -43 62 -57 0 -18 30 -37 58
-37 21 0 42 13 81 52 61 60 61 78 -1 72 -42 -5 -43 -5 -20 12 25 19 29 44 7
44 -9 0 -12 -6 -8 -17 4 -9 2 -14 -4 -10 -5 3 -17 -3 -26 -14 -21 -24 -34 -24
-49 1 -7 11 -18 20 -25 20 -6 0 -13 5 -15 11 -2 5 -6 7 -10 4z m140 -87 c-18
-11 -110 -10 -128 2 -10 7 9 9 63 8 44 -1 72 -5 65 -10z m-62 -46 c-21 -2 -42
0 -47 5 -4 4 13 6 39 3 l47 -5 -39 -3z"/>
<path d="M849 518 c-2 -27 -1 -48 2 -48 13 0 17 27 10 61 -8 34 -8 34 -12 -13z"/>
<path d="M538 545 c-10 -16 6 -78 21 -83 9 -3 11 0 5 9 -4 7 -10 29 -14 49 -3
19 -8 30 -12 25z"/>
</g>
</svg>
